HIERARCHY
ROOT root
{
	OFFSET 0.000000 0.054209 0.736570
	CHANNELS 6 Xposition Yposition Zposition Xrotation Yrotation Zrotation
	JOINT spine04
	{
		OFFSET 0.000000 -0.030951 0.078753
		CHANNELS 6 Xposition Yposition Zposition Xrotation Yrotation Zrotation
		JOINT spine02
		{
			OFFSET 0.000000 -0.000238 0.104623
			CHANNELS 6 Xposition Yposition Zposition Xrotation Yrotation Zrotation
			JOINT spine01
			{
				OFFSET 0.000000 0.017421 0.109292
				CHANNELS 3 Xrotation Yrotation Zrotation
				JOINT neck01
				{
					OFFSET 0.000000 -0.049753 0.167208
					CHANNELS 6 Xposition Yposition Zposition Xrotation Yrotation Zrotation
					JOINT neck02
					{
						OFFSET 0.000000 0.005512 0.021216
						CHANNELS 3 Xrotation Yrotation Zrotation
						JOINT jaw
						{
							OFFSET 0.000000 -0.043573 0.063270
							CHANNELS 6 Xposition Yposition Zposition Xrotation Yrotation Zrotation
							End Site
							{
								OFFSET 0.000000 -0.008973 0.006556
							}
						}
						JOINT eye.L
						{
							OFFSET 0.023674 -0.098122 0.090003
							CHANNELS 3 Xrotation Yrotation Zrotation
							End Site
							{
								OFFSET 0.001819 -0.030370 -0.004421
							}
						}
						JOINT orbicularis03.L
						{
							OFFSET 0.023674 -0.098122 0.090003
							CHANNELS 3 Xrotation Yrotation Zrotation
							End Site
							{
								OFFSET 0.001761 -0.029014 0.005250
							}
						}
						JOINT eye.R
						{
							OFFSET -0.023674 -0.098122 0.090003
							CHANNELS 3 Xrotation Yrotation Zrotation
							End Site
							{
								OFFSET -0.001819 -0.030370 -0.004421
							}
						}
						JOINT orbicularis03.R
						{
							OFFSET -0.023674 -0.098122 0.090003
							CHANNELS 3 Xrotation Yrotation Zrotation
							End Site
							{
								OFFSET -0.001761 -0.029014 0.005250
							}
						}
						End Site
						{
							OFFSET 0.000000 0.005512 0.021217
						}
					}
				}
				JOINT clavicle.R
				{
					OFFSET -0.018367 -0.058464 0.107155
					CHANNELS 6 Xposition Yposition Zposition Xrotation Yrotation Zrotation
					JOINT upperarm01.R
					{
						OFFSET -0.132020 0.003642 -0.024313
						CHANNELS 6 Xposition Yposition Zposition Xrotation Yrotation Zrotation
						JOINT lowerarm01.R
						{
							OFFSET -0.133638 0.001770 -0.153088
							CHANNELS 6 Xposition Yposition Zposition Xrotation Yrotation Zrotation
							JOINT wrist.R
							{
								OFFSET -0.108574 -0.154815 -0.103768
								CHANNELS 6 Xposition Yposition Zposition Xrotation Yrotation Zrotation
								JOINT finger2-1.R
								{
									OFFSET -0.024321 -0.084906 -0.032804
									CHANNELS 3 Xrotation Yrotation Zrotation
									JOINT finger2-2.R
									{
										OFFSET -0.002927 -0.018838 -0.012653
										CHANNELS 3 Xrotation Yrotation Zrotation
										JOINT finger2-3.R
										{
											OFFSET 0.000460 -0.015088 -0.013862
											CHANNELS 3 Xrotation Yrotation Zrotation
											End Site
											{
												OFFSET 0.003042 -0.016083 -0.016987
											}
										}
									}
								}
								JOINT finger3-1.R
								{
									OFFSET -0.038828 -0.069770 -0.043126
									CHANNELS 3 Xrotation Yrotation Zrotation
									JOINT finger3-2.R
									{
										OFFSET -0.006387 -0.018854 -0.022184
										CHANNELS 3 Xrotation Yrotation Zrotation
										JOINT finger3-3.R
										{
											OFFSET -0.002379 -0.015757 -0.018306
											CHANNELS 3 Xrotation Yrotation Zrotation
											End Site
											{
												OFFSET 0.000156 -0.013802 -0.019326
											}
										}
									}
								}
								JOINT finger4-1.R
								{
									OFFSET -0.045586 -0.054771 -0.050312
									CHANNELS 3 Xrotation Yrotation Zrotation
									JOINT finger4-2.R
									{
										OFFSET -0.008217 -0.013209 -0.021152
										CHANNELS 3 Xrotation Yrotation Zrotation
										JOINT finger4-3.R
										{
											OFFSET -0.003838 -0.011895 -0.018031
											CHANNELS 3 Xrotation Yrotation Zrotation
											End Site
											{
												OFFSET -0.002024 -0.010563 -0.020894
											}
										}
									}
								}
								JOINT finger5-1.R
								{
									OFFSET -0.046820 -0.037780 -0.058682
									CHANNELS 3 Xrotation Yrotation Zrotation
									JOINT finger5-2.R
									{
										OFFSET -0.005233 -0.007322 -0.016539
										CHANNELS 3 Xrotation Yrotation Zrotation
										JOINT finger5-3.R
										{
											OFFSET -0.001524 -0.005484 -0.012548
											CHANNELS 3 Xrotation Yrotation Zrotation
											End Site
											{
												OFFSET -0.002248 -0.006725 -0.016024
											}
										}
									}
								}
								JOINT finger1-1.R
								{
									OFFSET -0.000927 -0.039280 -0.005363
									CHANNELS 3 Xrotation Yrotation Zrotation
									JOINT finger1-2.R
									{
										OFFSET 0.018386 -0.018805 -0.006895
										CHANNELS 3 Xrotation Yrotation Zrotation
										JOINT finger1-3.R
										{
											OFFSET 0.010991 -0.028095 -0.011249
											CHANNELS 3 Xrotation Yrotation Zrotation
											End Site
											{
												OFFSET 0.004840 -0.019091 -0.014527
											}
										}
									}
								}
							}
						}
					}
				}
				JOINT clavicle.L
				{
					OFFSET 0.018367 -0.058464 0.107155
					CHANNELS 6 Xposition Yposition Zposition Xrotation Yrotation Zrotation
					JOINT upperarm01.L
					{
						OFFSET 0.132020 0.003642 -0.024313
						CHANNELS 6 Xposition Yposition Zposition Xrotation Yrotation Zrotation
						JOINT lowerarm01.L
						{
							OFFSET 0.133638 0.001770 -0.153088
							CHANNELS 6 Xposition Yposition Zposition Xrotation Yrotation Zrotation
							JOINT wrist.L
							{
								OFFSET 0.108574 -0.154815 -0.103768
								CHANNELS 6 Xposition Yposition Zposition Xrotation Yrotation Zrotation
								JOINT finger2-1.L
								{
									OFFSET 0.024321 -0.084906 -0.032804
									CHANNELS 3 Xrotation Yrotation Zrotation
									JOINT finger2-2.L
									{
										OFFSET 0.002927 -0.018837 -0.012653
										CHANNELS 3 Xrotation Yrotation Zrotation
										JOINT finger2-3.L
										{
											OFFSET -0.000460 -0.015088 -0.013862
											CHANNELS 3 Xrotation Yrotation Zrotation
											End Site
											{
												OFFSET -0.003042 -0.016083 -0.016987
											}
										}
									}
								}
								JOINT finger3-1.L
								{
									OFFSET 0.038828 -0.069770 -0.043126
									CHANNELS 3 Xrotation Yrotation Zrotation
									JOINT finger3-2.L
									{
										OFFSET 0.006387 -0.018854 -0.022184
										CHANNELS 3 Xrotation Yrotation Zrotation
										JOINT finger3-3.L
										{
											OFFSET 0.002379 -0.015757 -0.018306
											CHANNELS 3 Xrotation Yrotation Zrotation
											End Site
											{
												OFFSET -0.000156 -0.013802 -0.019326
											}
										}
									}
								}
								JOINT finger4-1.L
								{
									OFFSET 0.045586 -0.054771 -0.050312
									CHANNELS 3 Xrotation Yrotation Zrotation
									JOINT finger4-2.L
									{
										OFFSET 0.008217 -0.013209 -0.021152
										CHANNELS 3 Xrotation Yrotation Zrotation
										JOINT finger4-3.L
										{
											OFFSET 0.003838 -0.011894 -0.018031
											CHANNELS 3 Xrotation Yrotation Zrotation
											End Site
											{
												OFFSET 0.002024 -0.010563 -0.020894
											}
										}
									}
								}
								JOINT finger5-1.L
								{
									OFFSET 0.046820 -0.037780 -0.058682
									CHANNELS 3 Xrotation Yrotation Zrotation
									JOINT finger5-2.L
									{
										OFFSET 0.005233 -0.007322 -0.016539
										CHANNELS 3 Xrotation Yrotation Zrotation
										JOINT finger5-3.L
										{
											OFFSET 0.001524 -0.005484 -0.012548
											CHANNELS 3 Xrotation Yrotation Zrotation
											End Site
											{
												OFFSET 0.002248 -0.006725 -0.016024
											}
										}
									}
								}
								JOINT finger1-1.L
								{
									OFFSET 0.000927 -0.039280 -0.005363
									CHANNELS 3 Xrotation Yrotation Zrotation
									JOINT finger1-2.L
									{
										OFFSET -0.018386 -0.018805 -0.006895
										CHANNELS 3 Xrotation Yrotation Zrotation
										JOINT finger1-3.L
										{
											OFFSET -0.010991 -0.028095 -0.011249
											CHANNELS 3 Xrotation Yrotation Zrotation
											End Site
											{
												OFFSET -0.004839 -0.019091 -0.014527
											}
										}
									}
								}
							}
						}
					}
				}
			}
		}
	}
	JOINT upperleg01.R
	{
		OFFSET -0.087495 -0.048056 0.004242
		CHANNELS 6 Xposition Yposition Zposition Xrotation Yrotation Zrotation
		JOINT lowerleg01.R
		{
			OFFSET -0.034522 -0.027831 -0.333803
			CHANNELS 6 Xposition Yposition Zposition Xrotation Yrotation Zrotation
			JOINT foot.R
			{
				OFFSET -0.037458 0.009413 -0.349633
				CHANNELS 3 Xrotation Yrotation Zrotation
				JOINT toe1-1.R
				{
					OFFSET -0.003290 -0.101211 -0.050981
					CHANNELS 6 Xposition Yposition Zposition Xrotation Yrotation Zrotation
					End Site
					{
						OFFSET 0.000524 -0.066142 0.003009
					}
				}
			}
		}
	}
	JOINT upperleg01.L
	{
		OFFSET 0.087495 -0.048056 0.004242
		CHANNELS 6 Xposition Yposition Zposition Xrotation Yrotation Zrotation
		JOINT lowerleg01.L
		{
			OFFSET 0.034522 -0.027831 -0.333803
			CHANNELS 6 Xposition Yposition Zposition Xrotation Yrotation Zrotation
			JOINT foot.L
			{
				OFFSET 0.037458 0.009412 -0.349633
				CHANNELS 3 Xrotation Yrotation Zrotation
				JOINT toe1-1.L
				{
					OFFSET 0.003290 -0.101211 -0.050981
					CHANNELS 6 Xposition Yposition Zposition Xrotation Yrotation Zrotation
					End Site
					{
						OFFSET -0.000524 -0.066142 0.003009
					}
				}
			}
		}
	}
}
MOTION
Frames: 4
Frame Time:	0.016667
0.2709 -0.6036 0.7778 -8.5303 -2.9267 -166.5934 -0.0001 -0.0354 0.074 2.7834 0.1712 0.2527 -0.0001 -0.0021 0.0981 1.1574 0.6185 0.2306 0 0 0 0 -0.0443 0.1625 15.7875 0.4582 2.212 -90.1124 2.774 3.8607 0 -0.0436 0.0633 0 0 0 0.8509 -0.2457 6.7562 -0.0001 0 0 0.8509 -0.2457 6.7562 -0.0001 0 0 -0.0184 -0.0585 0.1072 0.6065 -3.766 -3.7127 -0.1356 -0.0037 -0.0169 -2.7962 -5.5953 22.0001 -0.1336 0.0017 -0.1531 -55.2621 -47.4222 64.5372 -0.1086 -0.1549 -0.1036 -10.0094 8.3775 -21.0682 31.8592 -22.819 20.4087 36.016 -17.6463 29.9666 41.4956 -17.6057 33.9217 -1.054 -2.6152 0.2043 15.6196 -19.2884 11.0379 6.6186 -11.3868 2.4866 -7.241 0.2187 1.3967 11.4461 -17.8716 4.4384 4.1357 -12.233 0.9773 7.3827 -33.6099 18.6006 27.4428 -39.6929 19.1053 31.7375 -42.875 24.4789 -7.4593 -35.7386 -24.7241 4.0064 4.0186 -6.0575 -8.2203 2.7389 -9.2177 0.0184 -0.0585 0.1072 0.1467 2.7378 0.746 0.1356 -0.0037 -0.0169 30.4412 27.4825 -16.2778 0.1336 0.0017 -0.1531 -49.62 51.0357 -74.8338 0.1085 -0.1549 -0.1037 -22.4769 -28.612 1.08 48.0343 24.0163 -38.0914 51.5043 16.7769 -44.8715 56.3785 15.8469 -48.3874 16.8842 22.3707 -22.0213 36.056 30.2873 -33.2635 33.0258 29.7661 -31.296 -5.5552 1.4151 -2.2931 12.6032 19.2366 -5.9024 7.3971 17.1122 -4.6265 13.7936 37.8983 -23.8821 33.5224 43.4496 -25.2994 39.256 46.4241 -32.1126 -0.6683 29.1735 22.2367 4.8868 -1.127 1.8367 -7.4572 -0.5906 8.6358 -0.0875 -0.0481 0.0042 -20.1206 -4.8923 -2.504 -0.0347 -0.0279 -0.3351 -6.2378 -0.2457 0.65 56.1107 -4.8996 -7.0679 -0.0033 -0.1012 -0.051 -45.1802 -5.63 6.5286 0.0875 -0.0481 0.0042 -22.2727 -2.3507 -1.5363 0.0346 -0.0279 -0.335 -6.2378 0.2457 -0.6501 61.1657 17.006 14.3179 0.0033 -0.1012 -0.051 -24.3942 19.7929 -28.1243 
0.2717 -0.6045 0.7773 -9.0318 -3.006 -166.0777 -0.0001 -0.0352 0.0743 2.6616 0.1648 0.2726 -0.0001 -0.002 0.0984 1.1027 0.62 0.2547 0 0 0 0 -0.0445 0.1628 15.8208 0.4158 2.3594 -89.3964 2.7838 4.0531 0 -0.0436 0.0633 0.0001 0 0 1.4053 -0.1924 7.2272 0 0 0 1.4053 -0.1924 7.2272 0 0 0 -0.0184 -0.0585 0.1072 0.6133 -3.7558 -3.7427 -0.1356 -0.0037 -0.0169 -3.0589 -5.6735 22.2967 -0.1336 0.0017 -0.1531 -55.2883 -47.4892 64.5876 -0.1086 -0.1549 -0.1036 -9.6316 8.2972 -21.5549 31.7469 -22.7964 20.2925 35.9231 -17.6373 29.8795 41.3813 -17.6025 33.8145 -1.0967 -2.5698 0.1696 15.5856 -19.2596 11.0004 6.5633 -11.3206 2.4243 -7.2717 0.2487 1.3859 11.4285 -17.8472 4.4192 4.102 -12.1769 0.942 7.3692 -33.5969 18.5884 27.4285 -39.6822 19.0911 31.7084 -42.8577 24.4498 -7.4514 -35.7296 -24.748 4.0131 4.0309 -6.085 -8.2166 2.7483 -9.2318 0.0184 -0.0585 0.1072 0.1685 2.7329 0.8485 0.1356 -0.0037 -0.0169 30.7488 27.4624 -16.4476 0.1336 0.0017 -0.1531 -49.6174 51.1654 -75.008 0.1085 -0.1549 -0.1037 -22.3466 -28.8783 1.0835 48.0278 24.0166 -38.0843 51.4986 16.7778 -44.8662 56.373 15.8481 -48.3823 16.93 22.3952 -22.0644 36.1033 30.3019 -33.3137 33.0695 29.7814 -31.3424 -5.5502 1.4235 -2.297 12.6091 19.2442 -5.9087 7.398 17.1134 -4.6274 13.7925 37.901 -23.8837 33.5235 43.4502 -25.3005 39.2561 46.4241 -32.1127 -0.6412 29.1551 22.2595 4.8941 -1.1397 1.8624 -7.4517 -0.6018 8.6521 -0.0875 -0.0481 0.0042 -20.3357 -4.6559 -2.875 -0.0347 -0.0279 -0.3351 -6.2378 -0.2457 0.6501 53.6169 -4.8353 -6.9028 -0.0033 -0.1012 -0.051 -42.9918 -5.2064 6.2888 0.0875 -0.0481 0.0042 -22.9291 -2.1019 -1.9943 0.0346 -0.0279 -0.335 -6.2379 0.2456 -0.65 61.2025 16.8845 14.2435 0.0033 -0.1012 -0.051 -24.2002 19.6425 -28.0982 
0.2724 -0.6052 0.7771 -9.375 -3.0618 -165.6342 -0.0001 -0.0351 0.0744 2.6136 0.1618 0.2874 -0.0001 -0.0019 0.0986 1.0747 0.6189 0.2731 0 0 0 0 -0.0447 0.1629 15.8355 0.3999 2.4503 -88.8073 2.766 4.1469 0 -0.0436 0.0633 0 0 0 1.7898 -0.1485 7.4688 0 0 0 1.7898 -0.1486 7.4687 -0.0001 0 0 -0.0184 -0.0585 0.1072 0.6102 -3.7505 -3.7286 -0.1356 -0.0037 -0.0169 -3.195 -5.7845 22.5265 -0.1336 0.0017 -0.1531 -55.25 -47.5199 64.6269 -0.1086 -0.1549 -0.1036 -9.4312 8.2488 -21.8525 31.6258 -22.772 20.1674 35.8237 -17.6276 29.7864 41.2569 -17.5988 33.6979 -1.1524 -2.5114 0.1251 15.5405 -19.2213 10.9506 6.4954 -11.2393 2.3479 -7.3142 0.291 1.3705 11.402 -17.8104 4.3904 4.0596 -12.106 0.8973 7.3525 -33.5823 18.5743 27.4116 -39.6694 19.0741 31.6756 -42.8383 24.4171 -7.4463 -35.7213 -24.774 4.0193 4.042 -6.1099 -8.213 2.7573 -9.2453 0.0184 -0.0585 0.1072 0.1898 2.7291 0.9482 0.1356 -0.0037 -0.0169 31.0495 27.4342 -16.5482 0.1336 0.0017 -0.1531 -49.6279 51.2929 -75.1557 0.1085 -0.1549 -0.1037 -22.266 -29.081 1.08 48.0228 24.0169 -38.0787 51.4944 16.7784 -44.8621 56.3687 15.8489 -48.3784 16.9579 22.41 -22.0904 36.1337 30.3113 -33.346 33.0963 29.7907 -31.3708 -5.5578 1.4212 -2.297 12.6087 19.2438 -5.9084 7.3927 17.1058 -4.6218 13.7861 37.9017 -23.882 33.52 43.4482 -25.2969 39.2519 46.4224 -32.1086 -0.6143 29.1364 22.2849 4.901 -1.1519 1.887 -7.4459 -0.6136 8.6693 -0.0875 -0.0481 0.0042 -20.508 -4.4607 -3.222 -0.0346 -0.0279 -0.335 -6.2378 -0.2457 0.65 52.037 -4.8319 -6.8277 -0.0033 -0.1012 -0.051 -41.6058 -4.9506 6.1364 0.0875 -0.0481 0.0042 -23.4058 -1.8953 -2.3412 0.0346 -0.0279 -0.335 -6.2379 0.2456 -0.65 61.2282 16.7992 14.1914 0.0033 -0.1012 -0.051 -23.9716 19.521 -28.0942 
0.2732 -0.6057 0.7773 -9.5804 -3.1001 -165.1865 -0.0001 -0.0351 0.0744 2.6543 0.1662 0.2969 -0.0001 -0.0019 0.0986 1.068 0.6196 0.2853 0 0 0 0 -0.0446 0.1629 15.8336 0.3945 2.5107 -88.3024 2.7322 4.1502 0 -0.0436 0.0633 0 0 0 2.0114 -0.1209 7.5507 0 0 0 2.0115 -0.121 7.5506 0 0 0 -0.0184 -0.0585 0.1072 0.6047 -3.7504 -3.7041 -0.1356 -0.0037 -0.0169 -3.1656 -5.916 22.6797 -0.1336 0.0017 -0.1531 -55.1668 -47.5513 64.6868 -0.1086 -0.1549 -0.1036 -9.391 8.2625 -21.9056 31.523 -22.7513 20.0619 35.7417 -17.6195 29.7095 41.1482 -17.5954 33.5958 -1.2166 -2.4437 0.0735 15.4869 -19.1757 10.8915 6.4194 -11.1477 2.2622 -7.3654 0.3438 1.3509 11.3683 -17.7637 4.3538 4.011 -12.0247 0.8463 7.3339 -33.5667 18.559 27.3929 -39.6553 19.0554 31.641 -42.8178 24.3825 -7.4435 -35.7142 -24.7999 4.0245 4.0513 -6.1308 -8.2098 2.7654 -9.2574 0.0184 -0.0585 0.1072 0.2104 2.7268 1.0445 0.1356 -0.0037 -0.0169 31.3691 27.382 -16.5852 0.1336 0.0017 -0.1531 -49.6368 51.4213 -75.2882 0.1085 -0.1549 -0.1037 -22.2632 -29.223 1.0132 48.0192 24.017 -38.0746 51.4912 16.7789 -44.8592 56.3657 15.8496 -48.3755 16.9692 22.416 -22.1009 36.1485 30.3159 -33.3618 33.1086 29.795 -31.3838 -5.5787 1.4055 -2.2916 12.6003 19.2327 -5.8992 7.3814 17.0898 -4.6101 13.7741 37.9004 -23.8767 33.5111 43.4431 -25.2881 39.2441 46.4191 -32.1007 -0.5881 29.1179 22.3105 4.9072 -1.1626 1.9088 -7.4401 -0.6254 8.6864 -0.0875 -0.0481 0.0042 -20.6333 -4.2952 -3.5666 -0.0346 -0.0279 -0.335 -6.2378 -0.2457 0.65 51.2886 -4.8808 -6.8359 -0.0033 -0.1012 -0.051 -41.0123 -4.8406 6.0685 0.0875 -0.0481 0.0042 -23.7247 -1.698 -2.6371 0.0346 -0.0279 -0.335 -6.2378 0.2456 -0.6501 61.2384 16.7652 14.1705 0.0033 -0.1012 -0.051 -23.6621 19.4763 -28.1756 
